<svg xmlns="http://www.w3.org/2000/svg" version="1.1" xmlns:xlink="http://www.w3.org/1999/xlink" xmlns:svgjs="http://svgjs.dev/svgjs" width="1000" height="212" viewBox="0 0 1000 212"><g transform="matrix(1,0,0,1,-0.6060606060606801,-0.026791903676070206)"><svg viewBox="0 0 396 84" data-background-color="#ffffff" preserveAspectRatio="xMidYMid meet" height="212" width="1000" xmlns="http://www.w3.org/2000/svg" xmlns:xlink="http://www.w3.org/1999/xlink"><defs></defs><g id="tight-bounds" transform="matrix(1,0,0,1,0.24000000000003752,0.010615659947120548)"><svg viewBox="0 0 395.5199999999999 83.97876868010576" height="83.97876868010576" width="395.5199999999999"><g><svg viewBox="0 0 529.8309756168829 112.49634137561937" height="83.97876868010576" width="395.5199999999999"><g transform="matrix(1,0,0,1,134.31097561688296,33.14688737092913)"><svg viewBox="0 0 395.52 46.20256663376111" height="46.20256663376111" width="395.52"><g><svg viewBox="0 0 395.52 46.20256663376111" height="46.20256663376111" width="395.52"><g><svg viewBox="0 0 395.52 46.20256663376111" height="46.20256663376111" width="395.52"><g transform="matrix(1,0,0,1,0,0)"><svg width="395.52" viewBox="0.9000000357627869 -35.5 303.8800048828125 35.5" height="46.20256663376111" data-palette-color="#8dbdff"><path d="M29.45-35.5L29.45-33.2 16.45-33.2 16.45 0 13.9 0 13.9-33.2 0.9-33.2 0.9-35.5 29.45-35.5ZM37.5 0L34.95 0 34.95-35.5 49.7-35.5Q52-35.5 53.87-34.55 55.75-33.6 57.12-32.02 58.5-30.45 59.27-28.5 60.05-26.55 60.05-24.5L60.05-24.5Q60.05-21.85 59-19.55 57.95-17.25 56.07-15.7 54.2-14.15 51.7-13.8L51.7-13.8 60.55 0 57.6 0 49-13.4 37.5-13.4 37.5 0ZM37.5-33.2L37.5-15.75 49.95-15.75Q52.25-15.75 53.95-17 55.65-18.25 56.57-20.25 57.5-22.25 57.5-24.5L57.5-24.5Q57.5-26.8 56.42-28.78 55.35-30.75 53.57-31.98 51.8-33.2 49.6-33.2L49.6-33.2 37.5-33.2ZM63.15 0L78.25-35.5 80.45-35.5 95.45 0 92.75 0 87.8-11.7 70.85-11.7 65.9 0 63.15 0ZM71.45-13.8L87.1-13.8 79.35-32.4 71.45-13.8ZM93.94-35.5L96.64-35.5 110.14-3.2 123.64-35.5 126.34-35.5 111.39 0 108.94 0 93.94-35.5ZM134.34-2.3L155.44-2.3 155.44 0 131.79 0 131.79-35.5 154.99-35.5 154.99-33.2 134.34-33.2 134.34-19.25 152.39-19.25 152.39-17.05 134.34-17.05 134.34-2.3ZM186.14 0L162.39 0 162.39-35.5 164.94-35.5 164.94-2.3 186.14-2.3 186.14 0ZM226.14 0L223.59 0 223.59-30.55 209.64-6.65 207.94-6.65 193.99-30.55 193.99 0 191.44 0 191.44-35.5 193.99-35.5 208.79-10.1 223.59-35.5 226.14-35.5 226.14 0ZM231.48 0L246.58-35.5 248.78-35.5 263.78 0 261.08 0 256.13-11.7 239.18-11.7 234.23 0 231.48 0ZM239.78-13.8L255.43-13.8 247.68-32.4 239.78-13.8ZM271.73 0L269.18 0 269.18-35.5 271.73-35.5 271.73 0ZM304.78 0L281.03 0 281.03-35.5 283.58-35.5 283.58-2.3 304.78-2.3 304.78 0Z" opacity="1" transform="matrix(1,0,0,1,0,0)" fill="#8dbdff" class="undefined-text-0" data-fill-palette-color="primary" id="text-0"></path></svg></g></svg></g></svg></g></svg></g><g><svg viewBox="0 0 112.49634137561937 112.49634137561937" height="112.49634137561937" width="112.49634137561937"><g><svg></svg></g><g id="icon-0"><svg viewBox="0 0 112.49634137561937 112.49634137561937" height="112.49634137561937" width="112.49634137561937"><g><path d="M0 56.248c0-31.065 25.183-56.248 56.248-56.248 31.065 0 56.248 25.183 56.248 56.248 0 31.065-25.183 56.248-56.248 56.248-31.065 0-56.248-25.183-56.248-56.248zM56.248 108.33c28.764 0 52.082-23.318 52.082-52.082 0-28.764-23.318-52.082-52.082-52.081-28.764 0-52.082 23.318-52.081 52.081 0 28.764 23.318 52.082 52.081 52.082z" data-fill-palette-color="accent" fill="#8dbdff" stroke="transparent"></path></g><g transform="matrix(1,0,0,1,23.69745783923321,31.234249673651444)"><svg viewBox="0 0 65.10142569715295 50.02784202831648" height="50.02784202831648" width="65.10142569715295"><g><svg xmlns="http://www.w3.org/2000/svg" xmlns:xlink="http://www.w3.org/1999/xlink" version="1.1" x="0" y="0" viewBox="0 0 100 76.84600067138672" enable-background="new 0 0 100 76.846" xml:space="preserve" width="65.10142569715295" height="50.02784202831648" class="icon-x-0" data-fill-palette-color="accent" id="x-0"><g fill="#8dbdff" data-fill-palette-color="accent"><g fill="#8dbdff" data-fill-palette-color="accent"><g fill="#8dbdff" data-fill-palette-color="accent"><polygon points="66.703,47.132 100,20.494 100,73.77    " fill="#8dbdff" data-fill-palette-color="accent"></polygon></g><g fill="#8dbdff" data-fill-palette-color="accent"><polygon points="33.298,47.132 0,20.494 0,73.77    " fill="#8dbdff" data-fill-palette-color="accent"></polygon></g><g fill="#8dbdff" data-fill-palette-color="accent"><polygon points="3.945,76.846 49.795,40.166 95.644,76.846    " fill="#8dbdff" data-fill-palette-color="accent"></polygon></g><polygon points="88.729,15.369 88.729,23.236 98.564,15.369   " fill="#8dbdff" data-fill-palette-color="accent"></polygon><polygon points="10.859,15.369 1.024,15.369 10.859,23.236   " fill="#8dbdff" data-fill-palette-color="accent"></polygon></g><g fill="#8dbdff" data-fill-palette-color="accent"><g fill="#8dbdff" data-fill-palette-color="accent"><path d="M14.958 0v26.228L36.987 43.85l12.808-10.245L62.603 43.85l22.029-17.622V0H14.958zM24.209 6.147h15.368v2.562H24.209V6.147zM65.164 27.664H24.18v-3.073h40.984V27.664zM65.164 21.517H24.18v-3.074h40.984V21.517zM65.164 15.369H24.18v-3.074h40.984V15.369z" fill="#8dbdff" data-fill-palette-color="accent"></path></g></g></g></svg></g></svg></g></svg></g></svg></g></svg></g></svg><rect width="395.5199999999999" height="83.97876868010576" fill="none" stroke="none" visibility="hidden"></rect></g></svg></g></svg>